<?xml version="1.0" standalone="no"?>
<!DOCTYPE svg PUBLIC "-//W3C//DTD SVG 20010904//EN"
 "http://www.w3.org/TR/2001/REC-SVG-20010904/DTD/svg10.dtd">
<svg version="1.0" xmlns="http://www.w3.org/2000/svg"
 width="1024.000000pt" height="1024.000000pt" viewBox="0 0 1024.000000 1024.000000"
 preserveAspectRatio="xMidYMid meet">
<metadata>
Created by potrace 1.14, written by Peter Selinger 2001-2017
</metadata>
<g transform="translate(0.000000,1024.000000) scale(0.100000,-0.100000)"
fill="#000000" stroke="none">
<path d="M3765 10158 c-318 -27 -573 -198 -709 -476 -38 -77 -73 -179 -82
-237 -3 -22 -9 -57 -14 -78 -12 -56 -4 -233 13 -308 61 -258 219 -520 457
-757 62 -62 117 -112 122 -112 7 0 -62 -101 -82 -120 -3 -3 -44 -57 -90 -120
-47 -63 -91 -122 -97 -130 -7 -8 -232 -307 -499 -665 -268 -357 -506 -671
-529 -697 -166 -185 -388 -531 -538 -840 -69 -140 -73 -147 -117 -168 -253
-122 -506 -355 -669 -614 -70 -111 -158 -313 -187 -431 -39 -151 -55 -281 -55
-437 0 -109 4 -160 27 -298 24 -150 128 -427 203 -539 9 -14 37 -55 60 -90
l43 -63 -20 -72 c-11 -39 -23 -84 -26 -101 -4 -16 -9 -41 -11 -55 -15 -72 -20
-150 -20 -290 0 -156 4 -210 25 -310 6 -30 13 -66 16 -79 13 -65 71 -227 112
-311 135 -279 331 -504 587 -673 84 -56 74 -48 156 -133 67 -71 169 -162 198
-178 9 -5 18 -12 21 -16 3 -4 50 -37 105 -73 224 -146 495 -272 830 -385 186
-63 283 -87 430 -106 143 -19 285 -37 315 -41 100 -11 147 -17 170 -20 14 -2
61 -6 105 -10 44 -3 91 -8 105 -10 24 -3 130 -12 258 -21 62 -4 242 -14 362
-19 91 -5 643 -5 755 -1 105 4 328 17 379 21 23 3 79 7 126 10 47 4 101 8 120
10 19 2 64 6 100 10 36 3 88 8 115 11 28 3 68 7 90 9 55 6 135 16 165 20 14 2
50 6 80 10 30 3 66 8 80 10 14 2 50 7 80 11 30 4 64 8 75 10 11 1 40 6 65 10
25 3 53 10 63 15 9 6 17 7 17 5 0 -8 279 90 357 125 37 17 69 30 70 30 14 -2
235 106 353 172 143 82 337 210 370 247 3 3 27 23 55 45 74 59 205 196 271
284 53 70 68 82 152 127 182 95 382 265 517 439 192 247 303 525 340 850 6 55
7 282 0 325 -2 19 -7 53 -10 75 -13 104 -60 277 -105 386 -78 188 -200 375
-344 524 -47 50 -86 99 -87 110 -1 31 -8 82 -24 179 -9 49 -17 103 -20 120 -3
24 -38 192 -70 336 -1 8 -9 35 -16 60 -7 25 -14 50 -14 55 -5 48 -151 487
-199 600 -90 207 -205 445 -264 544 -9 16 -34 59 -55 95 -84 145 -219 337
-341 481 -84 100 -67 78 -221 285 -141 190 -138 185 -163 217 -9 12 -25 32
-34 45 -27 36 -607 811 -621 828 -7 8 -64 85 -127 170 -63 85 -121 161 -127
168 -15 15 -17 42 -5 42 10 0 182 168 231 225 143 168 259 370 315 550 73 232
50 488 -64 716 -147 295 -443 472 -785 469 -91 -1 -112 -3 -175 -20 -99 -26
-233 -105 -308 -180 l-31 -30 -68 44 c-204 132 -420 190 -693 188 -292 -3
-500 -63 -707 -204 l-43 -29 -35 35 c-19 19 -62 54 -96 76 -144 98 -281 133
-464 118z"/>
</g>
</svg>
